<mxfile host="Electron" modified="2023-09-17T03:34:26.053Z" agent="Mozilla/5.0 (Windows NT 10.0; Win64; x64) AppleWebKit/537.36 (KHTML, like Gecko) draw.io/21.7.5 Chrome/114.0.5735.289 Electron/25.8.1 Safari/537.36" etag="5iLYUS_NDIMR6dKadtVM" version="21.7.5" type="device">
  <diagram name="Page-1" id="EZmPKCF6ZI91Psx-7hYF">
    <mxGraphModel dx="859" dy="518" grid="1" gridSize="10" guides="1" tooltips="1" connect="1" arrows="1" fold="1" page="1" pageScale="1" pageWidth="850" pageHeight="1100" math="0" shadow="0">
      <root>
        <mxCell id="0" />
        <mxCell id="1" parent="0" />
        <mxCell id="JdcKIeYOzdpxOeRv75iR-11" style="edgeStyle=orthogonalEdgeStyle;rounded=0;orthogonalLoop=1;jettySize=auto;html=1;entryX=0;entryY=0.5;entryDx=0;entryDy=0;" edge="1" parent="1" source="JdcKIeYOzdpxOeRv75iR-2" target="JdcKIeYOzdpxOeRv75iR-4">
          <mxGeometry relative="1" as="geometry" />
        </mxCell>
        <mxCell id="JdcKIeYOzdpxOeRv75iR-2" value="&lt;b&gt;&lt;font style=&quot;font-size: 14px; background-color: rgb(255, 255, 255);&quot; face=&quot;Verdana&quot;&gt;Horizontal Pod Scaler&amp;nbsp;&lt;/font&gt;&lt;/b&gt;" style="rounded=1;whiteSpace=wrap;html=1;strokeWidth=2;fillWeight=4;hachureGap=8;hachureAngle=45;fillColor=#1ba1e2;sketch=1;" vertex="1" parent="1">
          <mxGeometry x="100" y="315" width="150" height="70" as="geometry" />
        </mxCell>
        <mxCell id="JdcKIeYOzdpxOeRv75iR-3" value="&lt;b&gt;&lt;font style=&quot;font-size: 15px;&quot; face=&quot;Verdana&quot;&gt;Replica Set&amp;nbsp;&lt;/font&gt;&lt;/b&gt;" style="rounded=0;whiteSpace=wrap;html=1;fillColor=#b0e3e6;strokeColor=#0e8088;" vertex="1" parent="1">
          <mxGeometry x="490" y="320" width="120" height="60" as="geometry" />
        </mxCell>
        <mxCell id="JdcKIeYOzdpxOeRv75iR-12" style="edgeStyle=orthogonalEdgeStyle;rounded=0;orthogonalLoop=1;jettySize=auto;html=1;entryX=0;entryY=0.5;entryDx=0;entryDy=0;" edge="1" parent="1" source="JdcKIeYOzdpxOeRv75iR-4" target="JdcKIeYOzdpxOeRv75iR-3">
          <mxGeometry relative="1" as="geometry" />
        </mxCell>
        <mxCell id="JdcKIeYOzdpxOeRv75iR-4" value="&lt;b&gt;&lt;font style=&quot;font-size: 15px;&quot; face=&quot;Verdana&quot;&gt;Deployment&lt;/font&gt;&lt;/b&gt;" style="rounded=0;whiteSpace=wrap;html=1;fillColor=#d5e8d4;strokeColor=#82b366;" vertex="1" parent="1">
          <mxGeometry x="320" y="320" width="120" height="60" as="geometry" />
        </mxCell>
        <mxCell id="JdcKIeYOzdpxOeRv75iR-5" value="Pod 1" style="whiteSpace=wrap;html=1;aspect=fixed;fillColor=#fad9d5;strokeColor=#ae4132;" vertex="1" parent="1">
          <mxGeometry x="460" y="180" width="50" height="50" as="geometry" />
        </mxCell>
        <mxCell id="JdcKIeYOzdpxOeRv75iR-6" value="Pod 2" style="whiteSpace=wrap;html=1;aspect=fixed;fillColor=#fad9d5;strokeColor=#ae4132;" vertex="1" parent="1">
          <mxGeometry x="525" y="180" width="50" height="50" as="geometry" />
        </mxCell>
        <mxCell id="JdcKIeYOzdpxOeRv75iR-7" value="Pod N" style="whiteSpace=wrap;html=1;aspect=fixed;fillColor=#fad9d5;strokeColor=#ae4132;" vertex="1" parent="1">
          <mxGeometry x="600" y="180" width="50" height="50" as="geometry" />
        </mxCell>
        <mxCell id="JdcKIeYOzdpxOeRv75iR-8" value="" style="curved=1;endArrow=classic;html=1;rounded=0;exitX=0.165;exitY=-0.001;exitDx=0;exitDy=0;exitPerimeter=0;entryX=0.5;entryY=1;entryDx=0;entryDy=0;" edge="1" parent="1" source="JdcKIeYOzdpxOeRv75iR-3" target="JdcKIeYOzdpxOeRv75iR-5">
          <mxGeometry width="50" height="50" relative="1" as="geometry">
            <mxPoint x="440" y="280" as="sourcePoint" />
            <mxPoint x="490" y="230" as="targetPoint" />
            <Array as="points">
              <mxPoint x="540" y="280" />
              <mxPoint x="480" y="280" />
              <mxPoint x="460" y="250" />
            </Array>
          </mxGeometry>
        </mxCell>
        <mxCell id="JdcKIeYOzdpxOeRv75iR-9" value="" style="curved=1;endArrow=classic;html=1;rounded=0;exitX=0.5;exitY=0;exitDx=0;exitDy=0;entryX=0.5;entryY=1;entryDx=0;entryDy=0;" edge="1" parent="1" source="JdcKIeYOzdpxOeRv75iR-3" target="JdcKIeYOzdpxOeRv75iR-6">
          <mxGeometry width="50" height="50" relative="1" as="geometry">
            <mxPoint x="530" y="270" as="sourcePoint" />
            <mxPoint x="580" y="220" as="targetPoint" />
            <Array as="points">
              <mxPoint x="610" y="280" />
              <mxPoint x="520" y="260" />
            </Array>
          </mxGeometry>
        </mxCell>
        <mxCell id="JdcKIeYOzdpxOeRv75iR-10" value="" style="curved=1;endArrow=classic;html=1;rounded=0;exitX=0.842;exitY=-0.034;exitDx=0;exitDy=0;exitPerimeter=0;entryX=0.5;entryY=1;entryDx=0;entryDy=0;" edge="1" parent="1" source="JdcKIeYOzdpxOeRv75iR-3" target="JdcKIeYOzdpxOeRv75iR-7">
          <mxGeometry width="50" height="50" relative="1" as="geometry">
            <mxPoint x="600" y="290" as="sourcePoint" />
            <mxPoint x="650" y="240" as="targetPoint" />
            <Array as="points">
              <mxPoint x="650" y="310" />
              <mxPoint x="580" y="270" />
            </Array>
          </mxGeometry>
        </mxCell>
      </root>
    </mxGraphModel>
  </diagram>
</mxfile>
